4d546864000000060001000300304d54726b0000007e00c00300b00764000a2700640000650000060200e0704600904c7200ff51030c18c60a4c00024c720a4c00024c720a4c000253720db001300a90530001517200b001000a905100024e720a4e00024a720a4a00024f720db0013008904f000f497200b001000a904900024a720a4a000243720db001300890430004ff2f004d54726b0000007700c10300b10764000a5900640000650000060200e17046009143720a43000243720a43000243720a4300024a720db101300a914a0001487200b101000a9148000245720a45000242720a42000247720db10130089147000f3d7200b101000a913d00023e720a3e000237720db101300891370004ff2f004d54726b0000004500c22200b20773000a4000922d7e172d000d267e17260001267e0b260001267e0b2600012a7e0b2a00012b7e172b000d257e0b250001267e0b2600011f7e171f0002ff2f00